<mxfile>
    <diagram id="OUbmnmgiFA35l-AEfBl3" name="Страница 1">
        <mxGraphModel dx="658" dy="288" grid="1" gridSize="10" guides="1" tooltips="1" connect="1" arrows="1" fold="1" page="1" pageScale="1" pageWidth="827" pageHeight="1169" math="0" shadow="0">
            <root>
                <mxCell id="0"/>
                <mxCell id="1" parent="0"/>
                <mxCell id="3" value="SliderModel" style="swimlane;" parent="1" vertex="1">
                    <mxGeometry x="10" y="10" width="140" height="460" as="geometry">
                        <mxRectangle x="314" y="80" width="100" height="23" as="alternateBounds"/>
                    </mxGeometry>
                </mxCell>
                <mxCell id="4" value="&lt;font color=&quot;#ffffff&quot;&gt;state&lt;/font&gt;" style="text;html=1;align=left;verticalAlign=middle;resizable=0;points=[];autosize=1;" parent="3" vertex="1">
                    <mxGeometry x="10" y="30" width="40" height="20" as="geometry"/>
                </mxCell>
                <mxCell id="5" value="" style="line;strokeWidth=2;html=1;" parent="3" vertex="1">
                    <mxGeometry y="50" width="140" height="10" as="geometry"/>
                </mxCell>
                <mxCell id="8" value="&lt;div style=&quot;line-height: 19px&quot;&gt;&lt;font style=&quot;font-size: 12px&quot; color=&quot;#ffffff&quot;&gt;get&amp;nbsp;maxValue()&lt;/font&gt;&lt;/div&gt;" style="text;html=1;align=left;verticalAlign=middle;resizable=0;points=[];autosize=1;" parent="3" vertex="1">
                    <mxGeometry x="10" y="120" width="100" height="20" as="geometry"/>
                </mxCell>
                <mxCell id="9" value="&lt;div style=&quot;line-height: 19px&quot;&gt;&lt;font style=&quot;font-size: 12px&quot; color=&quot;#ffffff&quot;&gt;get fromValue()&lt;/font&gt;&lt;/div&gt;" style="text;html=1;align=left;verticalAlign=middle;resizable=0;points=[];autosize=1;" parent="3" vertex="1">
                    <mxGeometry x="10" y="80" width="100" height="20" as="geometry"/>
                </mxCell>
                <mxCell id="12" value="&lt;div style=&quot;line-height: 19px&quot;&gt;&lt;span style=&quot;color: rgb(255 , 255 , 255)&quot;&gt;get rangeValue()&lt;/span&gt;&lt;br&gt;&lt;/div&gt;" style="text;html=1;align=left;verticalAlign=middle;resizable=0;points=[];autosize=1;" parent="3" vertex="1">
                    <mxGeometry x="10" y="160" width="100" height="20" as="geometry"/>
                </mxCell>
                <mxCell id="13" value="&lt;div style=&quot;line-height: 19px&quot;&gt;&lt;span style=&quot;color: rgb(255 , 255 , 255)&quot;&gt;get flagValue()&lt;/span&gt;&lt;br&gt;&lt;/div&gt;" style="text;html=1;align=left;verticalAlign=middle;resizable=0;points=[];autosize=1;" parent="3" vertex="1">
                    <mxGeometry x="10" y="60" width="90" height="20" as="geometry"/>
                </mxCell>
                <mxCell id="14" value="&lt;div style=&quot;line-height: 19px&quot;&gt;&lt;span style=&quot;color: rgb(255 , 255 , 255)&quot;&gt;get scaleValue()&lt;/span&gt;&lt;br&gt;&lt;/div&gt;" style="text;html=1;align=left;verticalAlign=middle;resizable=0;points=[];autosize=1;" parent="3" vertex="1">
                    <mxGeometry x="10" y="180" width="100" height="20" as="geometry"/>
                </mxCell>
                <mxCell id="17" value="&lt;div style=&quot;line-height: 19px&quot;&gt;&lt;font style=&quot;font-size: 12px&quot; color=&quot;#ffffff&quot;&gt;set&amp;nbsp;maxValue(value)&lt;/font&gt;&lt;/div&gt;" style="text;html=1;align=left;verticalAlign=middle;resizable=0;points=[];autosize=1;" parent="3" vertex="1">
                    <mxGeometry x="10" y="320" width="120" height="20" as="geometry"/>
                </mxCell>
                <mxCell id="18" value="&lt;div style=&quot;line-height: 19px&quot;&gt;&lt;font style=&quot;font-size: 12px&quot; color=&quot;#ffffff&quot;&gt;set fromValue(value)&lt;/font&gt;&lt;/div&gt;" style="text;html=1;align=left;verticalAlign=middle;resizable=0;points=[];autosize=1;" parent="3" vertex="1">
                    <mxGeometry x="10" y="280" width="130" height="20" as="geometry"/>
                </mxCell>
                <mxCell id="21" value="&lt;div style=&quot;line-height: 19px&quot;&gt;&lt;font style=&quot;font-size: 12px&quot; color=&quot;#ffffff&quot;&gt;set rangeValue(value)&lt;/font&gt;&lt;/div&gt;" style="text;html=1;align=left;verticalAlign=middle;resizable=0;points=[];autosize=1;" parent="3" vertex="1">
                    <mxGeometry x="10" y="360" width="130" height="20" as="geometry"/>
                </mxCell>
                <mxCell id="22" value="&lt;div style=&quot;line-height: 19px&quot;&gt;&lt;font style=&quot;font-size: 12px&quot; color=&quot;#ffffff&quot;&gt;set flagValue(value)&lt;/font&gt;&lt;/div&gt;" style="text;html=1;align=left;verticalAlign=middle;resizable=0;points=[];autosize=1;" parent="3" vertex="1">
                    <mxGeometry x="10" y="260" width="120" height="20" as="geometry"/>
                </mxCell>
                <mxCell id="23" value="&lt;div style=&quot;line-height: 19px&quot;&gt;&lt;font style=&quot;font-size: 12px&quot; color=&quot;#ffffff&quot;&gt;set scaleValue(value)&lt;/font&gt;&lt;/div&gt;" style="text;html=1;align=left;verticalAlign=middle;resizable=0;points=[];autosize=1;" parent="3" vertex="1">
                    <mxGeometry x="10" y="380" width="130" height="20" as="geometry"/>
                </mxCell>
                <mxCell id="131" value="&lt;div style=&quot;line-height: 19px&quot;&gt;&lt;font style=&quot;font-size: 12px&quot; color=&quot;#ffffff&quot;&gt;get&amp;nbsp;mainValue()&lt;/font&gt;&lt;/div&gt;" style="text;html=1;align=left;verticalAlign=middle;resizable=0;points=[];autosize=1;" parent="3" vertex="1">
                    <mxGeometry x="10" y="100" width="100" height="20" as="geometry"/>
                </mxCell>
                <mxCell id="6" value="&lt;div style=&quot;line-height: 19px&quot;&gt;&lt;font style=&quot;font-size: 12px&quot; color=&quot;#ffffff&quot;&gt;get&amp;nbsp;minValue()&lt;/font&gt;&lt;/div&gt;" style="text;html=1;align=left;verticalAlign=middle;resizable=0;points=[];autosize=1;" parent="3" vertex="1">
                    <mxGeometry x="10" y="140" width="90" height="20" as="geometry"/>
                </mxCell>
                <mxCell id="10" value="&lt;div style=&quot;line-height: 19px&quot;&gt;&lt;span style=&quot;color: rgb(255 , 255 , 255)&quot;&gt;get stepValue()&lt;/span&gt;&lt;br&gt;&lt;/div&gt;" style="text;html=1;align=left;verticalAlign=middle;resizable=0;points=[];autosize=1;" parent="3" vertex="1">
                    <mxGeometry x="10" y="200" width="100" height="20" as="geometry"/>
                </mxCell>
                <mxCell id="129" value="&lt;div style=&quot;line-height: 19px&quot;&gt;&lt;font style=&quot;font-size: 12px&quot; color=&quot;#ffffff&quot;&gt;get toValue()&lt;/font&gt;&lt;/div&gt;" style="text;html=1;align=left;verticalAlign=middle;resizable=0;points=[];autosize=1;" parent="3" vertex="1">
                    <mxGeometry x="10" y="220" width="80" height="20" as="geometry"/>
                </mxCell>
                <mxCell id="11" value="&lt;div style=&quot;line-height: 19px&quot;&gt;&lt;span style=&quot;color: rgb(255 , 255 , 255)&quot;&gt;get viewValue()&lt;/span&gt;&lt;br&gt;&lt;/div&gt;" style="text;html=1;align=left;verticalAlign=middle;resizable=0;points=[];autosize=1;" parent="3" vertex="1">
                    <mxGeometry x="10" y="240" width="100" height="20" as="geometry"/>
                </mxCell>
                <mxCell id="132" value="&lt;div style=&quot;line-height: 19px&quot;&gt;&lt;font style=&quot;font-size: 12px&quot; color=&quot;#ffffff&quot;&gt;set&amp;nbsp;mainValue(value)&lt;/font&gt;&lt;/div&gt;" style="text;html=1;align=left;verticalAlign=middle;resizable=0;points=[];autosize=1;" parent="3" vertex="1">
                    <mxGeometry x="10" y="300" width="130" height="20" as="geometry"/>
                </mxCell>
                <mxCell id="16" value="&lt;div style=&quot;line-height: 19px&quot;&gt;&lt;font style=&quot;font-size: 12px&quot; color=&quot;#ffffff&quot;&gt;set&amp;nbsp;minValue(value)&lt;/font&gt;&lt;/div&gt;" style="text;html=1;align=left;verticalAlign=middle;resizable=0;points=[];autosize=1;" parent="3" vertex="1">
                    <mxGeometry x="10" y="340" width="120" height="20" as="geometry"/>
                </mxCell>
                <mxCell id="19" value="&lt;div style=&quot;line-height: 19px&quot;&gt;&lt;font style=&quot;font-size: 12px&quot; color=&quot;#ffffff&quot;&gt;set stepValue(value)&lt;/font&gt;&lt;/div&gt;" style="text;html=1;align=left;verticalAlign=middle;resizable=0;points=[];autosize=1;" parent="3" vertex="1">
                    <mxGeometry x="10" y="400" width="120" height="20" as="geometry"/>
                </mxCell>
                <mxCell id="130" value="&lt;div style=&quot;line-height: 19px&quot;&gt;&lt;font style=&quot;font-size: 12px&quot; color=&quot;#ffffff&quot;&gt;set toValue(value)&lt;/font&gt;&lt;/div&gt;" style="text;html=1;align=left;verticalAlign=middle;resizable=0;points=[];autosize=1;" parent="3" vertex="1">
                    <mxGeometry x="10" y="420" width="110" height="20" as="geometry"/>
                </mxCell>
                <mxCell id="20" value="&lt;div style=&quot;line-height: 19px&quot;&gt;&lt;font style=&quot;font-size: 12px&quot; color=&quot;#ffffff&quot;&gt;set viewValue(value)&lt;/font&gt;&lt;/div&gt;" style="text;html=1;align=left;verticalAlign=middle;resizable=0;points=[];autosize=1;" parent="3" vertex="1">
                    <mxGeometry x="10" y="440" width="130" height="20" as="geometry"/>
                </mxCell>
                <mxCell id="24" value="AbstractView" style="swimlane;" parent="1" vertex="1">
                    <mxGeometry x="190" y="10" width="220" height="240" as="geometry"/>
                </mxCell>
                <mxCell id="27" value="&lt;div style=&quot;line-height: 19px&quot;&gt;&lt;font style=&quot;font-size: 12px&quot; color=&quot;#ffffff&quot;&gt;get element()&lt;/font&gt;&lt;/div&gt;" style="text;html=1;align=left;verticalAlign=middle;resizable=0;points=[];autosize=1;" parent="24" vertex="1">
                    <mxGeometry x="10" y="100" width="90" height="20" as="geometry"/>
                </mxCell>
                <mxCell id="28" value="&lt;div style=&quot;line-height: 19px&quot;&gt;&lt;font style=&quot;font-size: 12px&quot; color=&quot;#ffffff&quot;&gt;get className()&lt;/font&gt;&lt;/div&gt;" style="text;html=1;align=left;verticalAlign=middle;resizable=0;points=[];autosize=1;" parent="24" vertex="1">
                    <mxGeometry x="10" y="80" width="100" height="20" as="geometry"/>
                </mxCell>
                <mxCell id="29" value="&lt;div style=&quot;line-height: 19px&quot;&gt;&lt;font style=&quot;font-size: 12px&quot; color=&quot;#ffffff&quot;&gt;get template()&lt;/font&gt;&lt;/div&gt;" style="text;html=1;align=left;verticalAlign=middle;resizable=0;points=[];autosize=1;" parent="24" vertex="1">
                    <mxGeometry x="10" y="120" width="90" height="20" as="geometry"/>
                </mxCell>
                <mxCell id="32" value="&lt;div style=&quot;line-height: 19px&quot;&gt;&lt;span style=&quot;color: rgb(255 , 255 , 255)&quot;&gt;bind()&lt;/span&gt;&lt;br&gt;&lt;/div&gt;" style="text;html=1;align=left;verticalAlign=middle;resizable=0;points=[];autosize=1;" parent="24" vertex="1">
                    <mxGeometry x="10" y="140" width="50" height="20" as="geometry"/>
                </mxCell>
                <mxCell id="33" value="&lt;div style=&quot;line-height: 19px&quot;&gt;&lt;span style=&quot;color: rgb(255 , 255 , 255)&quot;&gt;createElement(&lt;/span&gt;&lt;span style=&quot;color: rgb(255 , 255 , 255)&quot;&gt;template,&amp;nbsp;&lt;/span&gt;&lt;span style=&quot;color: rgb(255 , 255 , 255)&quot;&gt;className&lt;/span&gt;&lt;span style=&quot;color: rgb(255 , 255 , 255)&quot;&gt;)&lt;/span&gt;&lt;/div&gt;" style="text;html=1;align=left;verticalAlign=middle;resizable=0;points=[];autosize=1;" parent="24" vertex="1">
                    <mxGeometry x="10" y="160" width="210" height="20" as="geometry"/>
                </mxCell>
                <mxCell id="43" value="&lt;font color=&quot;#ffffff&quot;&gt;elem&lt;/font&gt;" style="text;html=1;align=left;verticalAlign=middle;resizable=0;points=[];autosize=1;" parent="24" vertex="1">
                    <mxGeometry x="10" y="30" width="40" height="20" as="geometry"/>
                </mxCell>
                <mxCell id="44" value="" style="line;strokeWidth=2;html=1;" parent="24" vertex="1">
                    <mxGeometry y="70" width="220" height="10" as="geometry"/>
                </mxCell>
                <mxCell id="95" value="&lt;font color=&quot;#ffffff&quot;&gt;sliderModel&lt;/font&gt;" style="text;html=1;align=left;verticalAlign=middle;resizable=0;points=[];autosize=1;" parent="24" vertex="1">
                    <mxGeometry x="10" y="50" width="80" height="20" as="geometry"/>
                </mxCell>
                <mxCell id="31" value="&lt;div style=&quot;line-height: 19px&quot;&gt;&lt;span style=&quot;color: rgb(255 , 255 , 255)&quot;&gt;render()&lt;/span&gt;&lt;br&gt;&lt;/div&gt;" style="text;html=1;align=left;verticalAlign=middle;resizable=0;points=[];autosize=1;" parent="24" vertex="1">
                    <mxGeometry x="10" y="200" width="60" height="20" as="geometry"/>
                </mxCell>
                <mxCell id="140" value="&lt;div style=&quot;line-height: 19px&quot;&gt;&lt;font style=&quot;font-size: 12px&quot; color=&quot;#ffffff&quot;&gt;newElement()&lt;/font&gt;&lt;/div&gt;" style="text;html=1;align=left;verticalAlign=middle;resizable=0;points=[];autosize=1;" parent="24" vertex="1">
                    <mxGeometry x="10" y="180" width="90" height="20" as="geometry"/>
                </mxCell>
                <mxCell id="141" value="&lt;div style=&quot;line-height: 19px&quot;&gt;&lt;font style=&quot;font-size: 12px&quot; color=&quot;#ffffff&quot;&gt;replaceView(className)&lt;/font&gt;&lt;/div&gt;" style="text;html=1;align=left;verticalAlign=middle;resizable=0;points=[];autosize=1;" parent="24" vertex="1">
                    <mxGeometry x="10" y="220" width="150" height="20" as="geometry"/>
                </mxCell>
                <mxCell id="45" value="ConfiguringView" style="swimlane;" parent="1" vertex="1">
                    <mxGeometry x="790" y="510" width="265" height="110" as="geometry"/>
                </mxCell>
                <mxCell id="46" value="&lt;div style=&quot;line-height: 19px&quot;&gt;&lt;font style=&quot;font-size: 12px&quot; color=&quot;#ffffff&quot;&gt;onInputChange(element: HTMLElement):&amp;nbsp;void&lt;/font&gt;&lt;/div&gt;" style="text;html=1;align=left;verticalAlign=middle;resizable=0;points=[];autosize=1;" parent="45" vertex="1">
                    <mxGeometry x="10" y="90" width="260" height="20" as="geometry"/>
                </mxCell>
                <mxCell id="97" value="&lt;div style=&quot;line-height: 19px&quot;&gt;&lt;font style=&quot;font-size: 12px&quot; color=&quot;#ffffff&quot;&gt;get className():&amp;nbsp;string&lt;/font&gt;&lt;/div&gt;" style="text;html=1;align=left;verticalAlign=middle;resizable=0;points=[];autosize=1;" parent="45" vertex="1">
                    <mxGeometry x="10" y="30" width="140" height="20" as="geometry"/>
                </mxCell>
                <mxCell id="98" value="&lt;div style=&quot;line-height: 19px&quot;&gt;&lt;font style=&quot;font-size: 12px&quot; color=&quot;#ffffff&quot;&gt;get template():&amp;nbsp;string&lt;/font&gt;&lt;/div&gt;" style="text;html=1;align=left;verticalAlign=middle;resizable=0;points=[];autosize=1;" parent="45" vertex="1">
                    <mxGeometry x="10" y="50" width="130" height="20" as="geometry"/>
                </mxCell>
                <mxCell id="99" value="&lt;div style=&quot;line-height: 19px&quot;&gt;&lt;span style=&quot;color: rgb(255 , 255 , 255)&quot;&gt;bind():&amp;nbsp;void&lt;/span&gt;&lt;br&gt;&lt;/div&gt;" style="text;html=1;align=left;verticalAlign=middle;resizable=0;points=[];autosize=1;" parent="45" vertex="1">
                    <mxGeometry x="10" y="70" width="70" height="20" as="geometry"/>
                </mxCell>
                <mxCell id="65" value="SliderViewOne" style="swimlane;" parent="1" vertex="1">
                    <mxGeometry x="450.5" y="10" width="149.5" height="70" as="geometry"/>
                </mxCell>
                <mxCell id="66" value="&lt;div style=&quot;line-height: 19px&quot;&gt;&lt;br&gt;&lt;/div&gt;" style="text;html=1;align=left;verticalAlign=middle;resizable=0;points=[];autosize=1;" parent="65" vertex="1">
                    <mxGeometry x="8" y="90" width="20" height="20" as="geometry"/>
                </mxCell>
                <mxCell id="101" value="&lt;div style=&quot;line-height: 19px&quot;&gt;&lt;font style=&quot;font-size: 12px&quot; color=&quot;#ffffff&quot;&gt;get className()&lt;/font&gt;&lt;/div&gt;" style="text;html=1;align=left;verticalAlign=middle;resizable=0;points=[];autosize=1;" parent="65" vertex="1">
                    <mxGeometry x="8" y="30" width="100" height="20" as="geometry"/>
                </mxCell>
                <mxCell id="102" value="&lt;div style=&quot;line-height: 19px&quot;&gt;&lt;font style=&quot;font-size: 12px&quot; color=&quot;#ffffff&quot;&gt;get template()&lt;/font&gt;&lt;/div&gt;" style="text;html=1;align=left;verticalAlign=middle;resizable=0;points=[];autosize=1;" parent="65" vertex="1">
                    <mxGeometry x="8" y="50" width="90" height="20" as="geometry"/>
                </mxCell>
                <mxCell id="68" value="ValueView" style="swimlane;" parent="1" vertex="1">
                    <mxGeometry x="790" y="200" width="425" height="110" as="geometry"/>
                </mxCell>
                <mxCell id="103" value="&lt;div style=&quot;line-height: 19px&quot;&gt;&lt;font style=&quot;font-size: 12px&quot; color=&quot;#ffffff&quot;&gt;get className():&amp;nbsp;string&lt;/font&gt;&lt;/div&gt;" style="text;html=1;align=left;verticalAlign=middle;resizable=0;points=[];autosize=1;" parent="68" vertex="1">
                    <mxGeometry x="10.5" y="30" width="140" height="20" as="geometry"/>
                </mxCell>
                <mxCell id="105" value="&lt;div style=&quot;line-height: 19px&quot;&gt;&lt;font style=&quot;font-size: 12px&quot; color=&quot;#ffffff&quot;&gt;get template():&amp;nbsp;string&lt;/font&gt;&lt;/div&gt;" style="text;html=1;align=left;verticalAlign=middle;resizable=0;points=[];autosize=1;" parent="68" vertex="1">
                    <mxGeometry x="10.5" y="50" width="130" height="20" as="geometry"/>
                </mxCell>
                <mxCell id="72" value="SliderPresenter" style="swimlane;" parent="1" vertex="1">
                    <mxGeometry x="10" y="510" width="210" height="430" as="geometry">
                        <mxRectangle x="314" y="80" width="100" height="23" as="alternateBounds"/>
                    </mxGeometry>
                </mxCell>
                <mxCell id="75" value="&lt;div style=&quot;line-height: 19px&quot;&gt;&lt;font style=&quot;font-size: 12px&quot; color=&quot;#ffffff&quot;&gt;init(obj)&lt;/font&gt;&lt;/div&gt;" style="text;html=1;align=left;verticalAlign=middle;resizable=0;points=[];autosize=1;" parent="72" vertex="1">
                    <mxGeometry x="10" y="330" width="50" height="20" as="geometry"/>
                </mxCell>
                <mxCell id="115" value="" style="line;strokeWidth=2;html=1;" parent="72" vertex="1">
                    <mxGeometry y="230" width="210" height="10" as="geometry"/>
                </mxCell>
                <mxCell id="133" value="&lt;div style=&quot;line-height: 19px&quot;&gt;&lt;font style=&quot;font-size: 12px&quot; color=&quot;#ffffff&quot;&gt;setInModelValue(key, value)&lt;/font&gt;&lt;/div&gt;" style="text;html=1;align=left;verticalAlign=middle;resizable=0;points=[];autosize=1;" parent="72" vertex="1">
                    <mxGeometry x="10" y="350" width="170" height="20" as="geometry"/>
                </mxCell>
                <mxCell id="109" value="&lt;font color=&quot;#ffffff&quot;&gt;sliderModel&lt;/font&gt;" style="text;html=1;align=left;verticalAlign=middle;resizable=0;points=[];autosize=1;" parent="72" vertex="1">
                    <mxGeometry x="10" y="30" width="80" height="20" as="geometry"/>
                </mxCell>
                <mxCell id="145" value="&lt;font color=&quot;#ffffff&quot;&gt;sliderViewOne&lt;/font&gt;" style="text;html=1;align=left;verticalAlign=middle;resizable=0;points=[];autosize=1;" parent="72" vertex="1">
                    <mxGeometry x="10" y="50" width="90" height="20" as="geometry"/>
                </mxCell>
                <mxCell id="146" value="&lt;font color=&quot;#ffffff&quot;&gt;sliderViewRange&lt;/font&gt;" style="text;html=1;align=left;verticalAlign=middle;resizable=0;points=[];autosize=1;" parent="72" vertex="1">
                    <mxGeometry x="10" y="70" width="110" height="20" as="geometry"/>
                </mxCell>
                <mxCell id="91" value="&lt;div style=&quot;line-height: 19px&quot;&gt;&lt;font style=&quot;font-size: 12px&quot; color=&quot;#ffffff&quot;&gt;showSliderView(className)&lt;/font&gt;&lt;/div&gt;" style="text;html=1;align=left;verticalAlign=middle;resizable=0;points=[];autosize=1;" parent="72" vertex="1">
                    <mxGeometry x="10" y="370" width="170" height="20" as="geometry"/>
                </mxCell>
                <mxCell id="147" value="&lt;div style=&quot;line-height: 19px&quot;&gt;&lt;font style=&quot;font-size: 12px&quot; color=&quot;#ffffff&quot;&gt;showView(className element)&lt;/font&gt;&lt;/div&gt;" style="text;html=1;align=left;verticalAlign=middle;resizable=0;points=[];autosize=1;" parent="72" vertex="1">
                    <mxGeometry x="10" y="390" width="180" height="20" as="geometry"/>
                </mxCell>
                <mxCell id="156" value="&lt;font color=&quot;#ffffff&quot;&gt;sliderViewVerticalOne&lt;/font&gt;" style="text;html=1;align=left;verticalAlign=middle;resizable=0;points=[];autosize=1;" parent="72" vertex="1">
                    <mxGeometry x="10" y="90" width="130" height="20" as="geometry"/>
                </mxCell>
                <mxCell id="157" value="&lt;font color=&quot;#ffffff&quot;&gt;sliderViewVerticalRange&lt;/font&gt;" style="text;html=1;align=left;verticalAlign=middle;resizable=0;points=[];autosize=1;" parent="72" vertex="1">
                    <mxGeometry x="10" y="110" width="140" height="20" as="geometry"/>
                </mxCell>
                <mxCell id="170" value="&lt;div style=&quot;line-height: 19px&quot;&gt;&lt;font style=&quot;font-size: 12px&quot; color=&quot;#ffffff&quot;&gt;showConfiguringView(className)&lt;/font&gt;&lt;/div&gt;" style="text;html=1;align=left;verticalAlign=middle;resizable=0;points=[];autosize=1;" vertex="1" parent="72">
                    <mxGeometry x="10" y="310" width="200" height="20" as="geometry"/>
                </mxCell>
                <mxCell id="113" value="&lt;font color=&quot;#ffffff&quot;&gt;configuringViewOne&lt;/font&gt;" style="text;html=1;align=left;verticalAlign=middle;resizable=0;points=[];autosize=1;" parent="72" vertex="1">
                    <mxGeometry x="10" y="130" width="120" height="20" as="geometry"/>
                </mxCell>
                <mxCell id="179" value="&lt;font color=&quot;#ffffff&quot;&gt;configuringViewRange&lt;/font&gt;" style="text;html=1;align=left;verticalAlign=middle;resizable=0;points=[];autosize=1;" vertex="1" parent="72">
                    <mxGeometry x="10" y="150" width="140" height="20" as="geometry"/>
                </mxCell>
                <mxCell id="112" value="&lt;font color=&quot;#ffffff&quot;&gt;scaleView&lt;/font&gt;" style="text;html=1;align=left;verticalAlign=middle;resizable=0;points=[];autosize=1;" parent="72" vertex="1">
                    <mxGeometry x="10" y="170" width="70" height="20" as="geometry"/>
                </mxCell>
                <mxCell id="180" value="&lt;font color=&quot;#ffffff&quot;&gt;scaleViewVertical&lt;/font&gt;" style="text;html=1;align=left;verticalAlign=middle;resizable=0;points=[];autosize=1;" vertex="1" parent="72">
                    <mxGeometry x="10" y="190" width="110" height="20" as="geometry"/>
                </mxCell>
                <mxCell id="111" value="&lt;font color=&quot;#ffffff&quot;&gt;valueView&lt;/font&gt;" style="text;html=1;align=left;verticalAlign=middle;resizable=0;points=[];autosize=1;" parent="1" vertex="1">
                    <mxGeometry x="220" y="580" width="70" height="20" as="geometry"/>
                </mxCell>
                <mxCell id="114" value="&lt;div style=&quot;line-height: 19px&quot;&gt;&lt;font style=&quot;font-size: 12px&quot; color=&quot;#ffffff&quot;&gt;configuringView.onInputChange(element)&lt;/font&gt;&lt;/div&gt;" style="text;html=1;align=left;verticalAlign=middle;resizable=0;points=[];autosize=1;" parent="1" vertex="1">
                    <mxGeometry x="220.5" y="640" width="240" height="20" as="geometry"/>
                </mxCell>
                <mxCell id="92" value="&lt;div style=&quot;line-height: 19px&quot;&gt;&lt;font style=&quot;font-size: 12px&quot; color=&quot;#ffffff&quot;&gt;showViewBeforeSlider(element)&lt;/font&gt;&lt;/div&gt;" style="text;html=1;align=left;verticalAlign=middle;resizable=0;points=[];autosize=1;" parent="1" vertex="1">
                    <mxGeometry x="220" y="750" width="190" height="20" as="geometry"/>
                </mxCell>
                <mxCell id="93" value="&lt;div style=&quot;line-height: 19px&quot;&gt;&lt;font style=&quot;font-size: 12px&quot; color=&quot;#ffffff&quot;&gt;setNewValueInModel(element)&lt;/font&gt;&lt;/div&gt;" style="text;html=1;align=left;verticalAlign=middle;resizable=0;points=[];autosize=1;" parent="1" vertex="1">
                    <mxGeometry x="220" y="770" width="180" height="20" as="geometry"/>
                </mxCell>
                <mxCell id="117" value="&lt;div style=&quot;line-height: 19px&quot;&gt;&lt;font style=&quot;font-size: 12px&quot; color=&quot;#ffffff&quot;&gt;toggleView(&amp;nbsp;&lt;/font&gt;&lt;span style=&quot;color: rgb(255 , 255 , 255)&quot;&gt;model,&amp;nbsp;&lt;/span&gt;&lt;span style=&quot;color: rgb(255 , 255 , 255)&quot;&gt;element,&amp;nbsp;&lt;/span&gt;&lt;span style=&quot;color: rgb(255 , 255 , 255)&quot;&gt;className&lt;/span&gt;&lt;span style=&quot;color: rgb(255 , 255 , 255)&quot;&gt;)&lt;/span&gt;&lt;/div&gt;" style="text;html=1;align=left;verticalAlign=middle;resizable=0;points=[];autosize=1;" parent="1" vertex="1">
                    <mxGeometry x="220.5" y="790" width="230" height="20" as="geometry"/>
                </mxCell>
                <mxCell id="134" value="SliderViewRange" style="swimlane;" parent="1" vertex="1">
                    <mxGeometry x="450.5" y="120" width="149.5" height="70" as="geometry"/>
                </mxCell>
                <mxCell id="135" value="&lt;div style=&quot;line-height: 19px&quot;&gt;&lt;br&gt;&lt;/div&gt;" style="text;html=1;align=left;verticalAlign=middle;resizable=0;points=[];autosize=1;" parent="134" vertex="1">
                    <mxGeometry x="8" y="90" width="20" height="20" as="geometry"/>
                </mxCell>
                <mxCell id="136" value="&lt;div style=&quot;line-height: 19px&quot;&gt;&lt;font style=&quot;font-size: 12px&quot; color=&quot;#ffffff&quot;&gt;get className()&lt;/font&gt;&lt;/div&gt;" style="text;html=1;align=left;verticalAlign=middle;resizable=0;points=[];autosize=1;" parent="134" vertex="1">
                    <mxGeometry x="8" y="30" width="100" height="20" as="geometry"/>
                </mxCell>
                <mxCell id="137" value="&lt;div style=&quot;line-height: 19px&quot;&gt;&lt;font style=&quot;font-size: 12px&quot; color=&quot;#ffffff&quot;&gt;get template()&lt;/font&gt;&lt;/div&gt;" style="text;html=1;align=left;verticalAlign=middle;resizable=0;points=[];autosize=1;" parent="134" vertex="1">
                    <mxGeometry x="8" y="50" width="90" height="20" as="geometry"/>
                </mxCell>
                <mxCell id="148" value="SliderViewVerticalOne" style="swimlane;" parent="1" vertex="1">
                    <mxGeometry x="450.5" y="230" width="149.5" height="70" as="geometry"/>
                </mxCell>
                <mxCell id="149" value="&lt;div style=&quot;line-height: 19px&quot;&gt;&lt;br&gt;&lt;/div&gt;" style="text;html=1;align=left;verticalAlign=middle;resizable=0;points=[];autosize=1;" parent="148" vertex="1">
                    <mxGeometry x="8" y="90" width="20" height="20" as="geometry"/>
                </mxCell>
                <mxCell id="150" value="&lt;div style=&quot;line-height: 19px&quot;&gt;&lt;font style=&quot;font-size: 12px&quot; color=&quot;#ffffff&quot;&gt;get className()&lt;/font&gt;&lt;/div&gt;" style="text;html=1;align=left;verticalAlign=middle;resizable=0;points=[];autosize=1;" parent="148" vertex="1">
                    <mxGeometry x="8" y="30" width="100" height="20" as="geometry"/>
                </mxCell>
                <mxCell id="151" value="&lt;div style=&quot;line-height: 19px&quot;&gt;&lt;font style=&quot;font-size: 12px&quot; color=&quot;#ffffff&quot;&gt;get template()&lt;/font&gt;&lt;/div&gt;" style="text;html=1;align=left;verticalAlign=middle;resizable=0;points=[];autosize=1;" parent="148" vertex="1">
                    <mxGeometry x="8" y="50" width="90" height="20" as="geometry"/>
                </mxCell>
                <mxCell id="152" value="SliderViewVerticalRange" style="swimlane;" parent="1" vertex="1">
                    <mxGeometry x="450.5" y="340" width="149.5" height="70" as="geometry"/>
                </mxCell>
                <mxCell id="153" value="&lt;div style=&quot;line-height: 19px&quot;&gt;&lt;br&gt;&lt;/div&gt;" style="text;html=1;align=left;verticalAlign=middle;resizable=0;points=[];autosize=1;" parent="152" vertex="1">
                    <mxGeometry x="8" y="90" width="20" height="20" as="geometry"/>
                </mxCell>
                <mxCell id="154" value="&lt;div style=&quot;line-height: 19px&quot;&gt;&lt;font style=&quot;font-size: 12px&quot; color=&quot;#ffffff&quot;&gt;get className()&lt;/font&gt;&lt;/div&gt;" style="text;html=1;align=left;verticalAlign=middle;resizable=0;points=[];autosize=1;" parent="152" vertex="1">
                    <mxGeometry x="8" y="30" width="100" height="20" as="geometry"/>
                </mxCell>
                <mxCell id="155" value="&lt;div style=&quot;line-height: 19px&quot;&gt;&lt;font style=&quot;font-size: 12px&quot; color=&quot;#ffffff&quot;&gt;get template()&lt;/font&gt;&lt;/div&gt;" style="text;html=1;align=left;verticalAlign=middle;resizable=0;points=[];autosize=1;" parent="152" vertex="1">
                    <mxGeometry x="8" y="50" width="90" height="20" as="geometry"/>
                </mxCell>
                <mxCell id="158" value="ConfiguringViewOne" style="swimlane;" vertex="1" parent="1">
                    <mxGeometry x="450.5" y="450" width="149.5" height="70" as="geometry"/>
                </mxCell>
                <mxCell id="159" value="&lt;div style=&quot;line-height: 19px&quot;&gt;&lt;br&gt;&lt;/div&gt;" style="text;html=1;align=left;verticalAlign=middle;resizable=0;points=[];autosize=1;" vertex="1" parent="158">
                    <mxGeometry x="8" y="90" width="20" height="20" as="geometry"/>
                </mxCell>
                <mxCell id="160" value="&lt;div style=&quot;line-height: 19px&quot;&gt;&lt;font style=&quot;font-size: 12px&quot; color=&quot;#ffffff&quot;&gt;get className()&lt;/font&gt;&lt;/div&gt;" style="text;html=1;align=left;verticalAlign=middle;resizable=0;points=[];autosize=1;" vertex="1" parent="158">
                    <mxGeometry x="8" y="30" width="100" height="20" as="geometry"/>
                </mxCell>
                <mxCell id="161" value="&lt;div style=&quot;line-height: 19px&quot;&gt;&lt;font style=&quot;font-size: 12px&quot; color=&quot;#ffffff&quot;&gt;get template()&lt;/font&gt;&lt;/div&gt;" style="text;html=1;align=left;verticalAlign=middle;resizable=0;points=[];autosize=1;" vertex="1" parent="158">
                    <mxGeometry x="8" y="50" width="90" height="20" as="geometry"/>
                </mxCell>
                <mxCell id="162" value="ConfiguringViewRange" style="swimlane;" vertex="1" parent="1">
                    <mxGeometry x="450.5" y="560" width="149.5" height="70" as="geometry"/>
                </mxCell>
                <mxCell id="163" value="&lt;div style=&quot;line-height: 19px&quot;&gt;&lt;br&gt;&lt;/div&gt;" style="text;html=1;align=left;verticalAlign=middle;resizable=0;points=[];autosize=1;" vertex="1" parent="162">
                    <mxGeometry x="8" y="90" width="20" height="20" as="geometry"/>
                </mxCell>
                <mxCell id="164" value="&lt;div style=&quot;line-height: 19px&quot;&gt;&lt;font style=&quot;font-size: 12px&quot; color=&quot;#ffffff&quot;&gt;get className()&lt;/font&gt;&lt;/div&gt;" style="text;html=1;align=left;verticalAlign=middle;resizable=0;points=[];autosize=1;" vertex="1" parent="162">
                    <mxGeometry x="8" y="30" width="100" height="20" as="geometry"/>
                </mxCell>
                <mxCell id="165" value="&lt;div style=&quot;line-height: 19px&quot;&gt;&lt;font style=&quot;font-size: 12px&quot; color=&quot;#ffffff&quot;&gt;get template()&lt;/font&gt;&lt;/div&gt;" style="text;html=1;align=left;verticalAlign=middle;resizable=0;points=[];autosize=1;" vertex="1" parent="162">
                    <mxGeometry x="8" y="50" width="90" height="20" as="geometry"/>
                </mxCell>
                <mxCell id="171" value="scaleView" style="swimlane;" vertex="1" parent="1">
                    <mxGeometry x="450.5" y="670" width="149.5" height="70" as="geometry"/>
                </mxCell>
                <mxCell id="172" value="&lt;div style=&quot;line-height: 19px&quot;&gt;&lt;br&gt;&lt;/div&gt;" style="text;html=1;align=left;verticalAlign=middle;resizable=0;points=[];autosize=1;" vertex="1" parent="171">
                    <mxGeometry x="8" y="90" width="20" height="20" as="geometry"/>
                </mxCell>
                <mxCell id="173" value="&lt;div style=&quot;line-height: 19px&quot;&gt;&lt;font style=&quot;font-size: 12px&quot; color=&quot;#ffffff&quot;&gt;get className()&lt;/font&gt;&lt;/div&gt;" style="text;html=1;align=left;verticalAlign=middle;resizable=0;points=[];autosize=1;" vertex="1" parent="171">
                    <mxGeometry x="8" y="30" width="100" height="20" as="geometry"/>
                </mxCell>
                <mxCell id="174" value="&lt;div style=&quot;line-height: 19px&quot;&gt;&lt;font style=&quot;font-size: 12px&quot; color=&quot;#ffffff&quot;&gt;get template()&lt;/font&gt;&lt;/div&gt;" style="text;html=1;align=left;verticalAlign=middle;resizable=0;points=[];autosize=1;" vertex="1" parent="171">
                    <mxGeometry x="8" y="50" width="90" height="20" as="geometry"/>
                </mxCell>
                <mxCell id="175" value="scaleViewVertical" style="swimlane;" vertex="1" parent="1">
                    <mxGeometry x="450.5" y="780" width="149.5" height="70" as="geometry"/>
                </mxCell>
                <mxCell id="176" value="&lt;div style=&quot;line-height: 19px&quot;&gt;&lt;br&gt;&lt;/div&gt;" style="text;html=1;align=left;verticalAlign=middle;resizable=0;points=[];autosize=1;" vertex="1" parent="175">
                    <mxGeometry x="8" y="90" width="20" height="20" as="geometry"/>
                </mxCell>
                <mxCell id="177" value="&lt;div style=&quot;line-height: 19px&quot;&gt;&lt;font style=&quot;font-size: 12px&quot; color=&quot;#ffffff&quot;&gt;get className()&lt;/font&gt;&lt;/div&gt;" style="text;html=1;align=left;verticalAlign=middle;resizable=0;points=[];autosize=1;" vertex="1" parent="175">
                    <mxGeometry x="8" y="30" width="100" height="20" as="geometry"/>
                </mxCell>
                <mxCell id="178" value="&lt;div style=&quot;line-height: 19px&quot;&gt;&lt;font style=&quot;font-size: 12px&quot; color=&quot;#ffffff&quot;&gt;get template()&lt;/font&gt;&lt;/div&gt;" style="text;html=1;align=left;verticalAlign=middle;resizable=0;points=[];autosize=1;" vertex="1" parent="175">
                    <mxGeometry x="8" y="50" width="90" height="20" as="geometry"/>
                </mxCell>
            </root>
        </mxGraphModel>
    </diagram>
</mxfile>